# xmcd
#
# Track frame offsets:
#	150
#	18843
#	37404
#	57242
#	73131
#	89583
#	103832
#	121506
#	136507
#	153365
#	172449
#	189568
#	203727
#	219098
#	238963
#	259651
#	279315
#	300481
#	326360
#
# Disc length: 4550
#
# Revision: 1
# Processed by: cddbd v1.5.1PL0 Copyright (c) Steve Scherf et al.
# Submitted via: EasyCDDAExtractor 4.6.0.1
# Normalized: r0:TDELIM( - )
#
DISCID=0e11c413
DTITLE=Various Artist - Here Come the Good Times
DYEAR=1900
DGENRE=
TTITLE0=The Irish World Cup Squad - Here Come the good Times
TTITLE1=U2 - Beautiful Day
TTITLE2=Thin Lizzy - The Boys are back in Town
TTITLE3=An Emotional Fish - Celebrate
TTITLE4=The Pogues - The Irish Rover
TTITLE5=Allies - Sayonara Connemara
TTITLE6=The Irish World Cup Squad - Put Em Under Pressure
TTITLE7=House of Pain - Jump Around
TTITLE8=The Vapors - Turning Japanese
TTITLE9=The Corrs - So Young
TTITLE10=Dance To Tipperary - The fields of Athenry
TTITLE11=Lick the Tins - Can't help falling in Love
TTITLE12=The Revellers - Country roads
TTITLE13=Christy Moore - Joxer goes to Stuttgart
TTITLE14=The Saw Doctors - N17
TTITLE15=D:Ream - Things can only get better
TTITLE16=Alphaville - Big in Japan
TTITLE17=Bill Whealan - Riverdance
TTITLE18=Dario G - Carnival 2002
EXTD=
EXTT0=
EXTT1=
EXTT2=
EXTT3=
EXTT4=
EXTT5=
EXTT6=
EXTT7=
EXTT8=
EXTT9=
EXTT10=
EXTT11=
EXTT12=
EXTT13=
EXTT14=
EXTT15=
EXTT16=
EXTT17=
EXTT18=
PLAYORDER=
